<svg xmlns="http://www.w3.org/2000/svg"
     viewBox="0 0 40 40"
     width="40"
     height="40">

    <path fill="#006548" fill-rule="evenodd" clip-rule="evenodd"
          d="M2,20c0-10,8.1-18.1,18.1-18.12v6.55
             c-6.37,0.01-11.55,5.19-11.55,11.57c0,6.39,5.19,11.58,
             11.58,11.58c6.36,0,11.58-5.14,11.58-11.62l6.55,0.004
             c0,10.05-8.12,18.17-18.14,18.17C10.12,38.12,2,30,2,20z"/>

    <path fill="#76BC21" fill-rule="evenodd" clip-rule="evenodd"
          d="M12.1,20c0-4.44,3.6-8.04,8.04-8.04
             c4.44,0,8.04,3.6,8.04,8.04
             c0,4.44-3.6,8.04-8.04,8.04
             C15.7,28.04,12.1,24.44,12.1,20z"/>

    <path fill="#006548" fill-rule="evenodd" clip-rule="evenodd"
          d="M28.4,9.1c0-2.55,2.07-4.61,4.61-4.61
             c2.55,0,4.61,2.07,4.61,4.61
             c0,2.55-2.07,4.61-4.61,4.61
             C30.47,13.71,28.4,11.65,28.4,9.1z"/>
</svg>